<svg viewBox="0 0 275 40" fill="none" xmlns="http://www.w3.org/2000/svg">
<path d="M21.5 0L26.5758 15.278H43L29.7112 24.722L34.787 40L21.5 30.5577L8.21121 40L13.287 24.722L0 15.278H16.4242L21.5 0Z" fill="url(#paint0_linear_129_578)"/>
<path d="M79.5 0L84.5758 15.278H101L87.7112 24.722L92.787 40L79.5 30.5577L66.2112 40L71.287 24.722L58 15.278H74.4242L79.5 0Z" fill="url(#paint1_linear_129_578)"/>
<path d="M137.5 0L142.576 15.278H159L145.711 24.722L150.787 40L137.5 30.5577L124.211 40L129.287 24.722L116 15.278H132.424L137.5 0Z" fill="url(#paint2_linear_129_578)"/>
<path d="M195.5 0L200.576 15.278H217L203.711 24.722L208.787 40L195.5 30.5577L182.211 40L187.287 24.722L174 15.278H190.424L195.5 0Z" fill="url(#paint3_linear_129_578)"/>
<path d="M253.5 0L258.576 15.278H275L261.711 24.722L266.787 40L253.5 30.5577L240.211 40L245.287 24.722L232 15.278H248.424L253.5 0Z" fill="url(#paint4_linear_129_578)"/>
<defs>
<linearGradient id="paint0_linear_129_578" x1="-4.97477e-07" y1="20.0225" x2="43" y2="20.0225" gradientUnits="userSpaceOnUse">
<stop stop-color="#1E7375"/>
<stop offset="0.546875" stop-color="#33B8BB"/>
<stop offset="1" stop-color="#29A5A8"/>
</linearGradient>
<linearGradient id="paint1_linear_129_578" x1="58" y1="20.0225" x2="101" y2="20.0225" gradientUnits="userSpaceOnUse">
<stop stop-color="#1E7375"/>
<stop offset="0.546875" stop-color="#33B8BB"/>
<stop offset="1" stop-color="#29A5A8"/>
</linearGradient>
<linearGradient id="paint2_linear_129_578" x1="116" y1="20.0225" x2="159" y2="20.0225" gradientUnits="userSpaceOnUse">
<stop stop-color="#1E7375"/>
<stop offset="0.546875" stop-color="#33B8BB"/>
<stop offset="1" stop-color="#29A5A8"/>
</linearGradient>
<linearGradient id="paint3_linear_129_578" x1="174" y1="20.0225" x2="217" y2="20.0225" gradientUnits="userSpaceOnUse">
<stop stop-color="#1E7375"/>
<stop offset="0.546875" stop-color="#33B8BB"/>
<stop offset="1" stop-color="#29A5A8"/>
</linearGradient>
<linearGradient id="paint4_linear_129_578" x1="232" y1="20.0225" x2="275" y2="20.0225" gradientUnits="userSpaceOnUse">
<stop stop-color="#1E7375"/>
<stop offset="0.546875" stop-color="#33B8BB"/>
<stop offset="1" stop-color="#29A5A8"/>
</linearGradient>
</defs>
</svg>
