<svg viewBox="0 0 265 37" fill="none" xmlns="http://www.w3.org/2000/svg">
<path d="M58.1035 30.3662C63.2891 30.3662 66.9072 27.3779 67.4053 22.6611H63.0986C62.6299 25.166 60.7402 26.7041 58.1182 26.7041C54.7344 26.7041 52.6104 23.9209 52.6104 19.4092C52.6104 14.9561 54.7637 12.1582 58.1035 12.1582C60.6816 12.1582 62.6738 13.8574 63.084 16.4502H67.3906C67.0537 11.7188 63.1865 8.49609 58.1035 8.49609C51.9805 8.49609 48.0986 12.6123 48.0986 19.4238C48.0986 26.25 51.9512 30.3662 58.1035 30.3662ZM70.4809 30H74.7582V8.8623H70.4809V30ZM85.2898 17.124C87.1941 17.124 88.4979 18.501 88.5857 20.5078H81.9207C82.0672 18.5449 83.4148 17.124 85.2898 17.124ZM88.6443 25.1953C88.2488 26.3965 87.0477 27.1729 85.4803 27.1729C83.2977 27.1729 81.8768 25.6348 81.8768 23.3936V23.1299H92.702V21.8262C92.702 17.0508 89.8162 13.96 85.2459 13.96C80.6023 13.96 77.6727 17.2119 77.6727 22.2217C77.6727 27.2461 80.573 30.3369 85.407 30.3369C89.2889 30.3369 92.1014 28.2715 92.5701 25.1953H88.6443ZM101.578 27.1582C100.128 27.1582 99.1613 26.4258 99.1613 25.2539C99.1613 24.1406 100.07 23.4229 101.666 23.3057L104.977 23.1006V24.2432C104.977 25.9424 103.439 27.1582 101.578 27.1582ZM100.172 30.249C102.135 30.249 104.083 29.2676 104.962 27.5977H105.05V30H109.181V19.2041C109.181 16.04 106.559 13.96 102.53 13.96C98.3703 13.96 95.7775 16.0547 95.6164 19.1016H99.5275C99.7326 17.9443 100.743 17.1533 102.34 17.1533C103.951 17.1533 104.977 18.0029 104.977 19.4678V20.5078L101.022 20.7422C97.1105 20.9766 94.9133 22.6318 94.9133 25.4883C94.9133 28.3154 97.1838 30.249 100.172 30.249ZM112.549 30H116.827V20.9912C116.827 18.9551 118.043 17.5488 119.962 17.5488C121.88 17.5488 122.847 18.7207 122.847 20.7715V30H127.125V19.8779C127.125 16.2012 125.162 14.0039 121.675 14.0039C119.258 14.0039 117.603 15.1465 116.768 17.0947H116.68V14.2969H112.549V30ZM137.48 17.124C139.385 17.124 140.688 18.501 140.776 20.5078H134.111C134.258 18.5449 135.605 17.124 137.48 17.124ZM140.835 25.1953C140.439 26.3965 139.238 27.1729 137.671 27.1729C135.488 27.1729 134.067 25.6348 134.067 23.3936V23.1299H144.893V21.8262C144.893 17.0508 142.007 13.96 137.437 13.96C132.793 13.96 129.863 17.2119 129.863 22.2217C129.863 27.2461 132.764 30.3369 137.598 30.3369C141.479 30.3369 144.292 28.2715 144.761 25.1953H140.835ZM147.704 30H151.982V21.2256C151.982 19.0137 153.212 17.7246 155.322 17.7246C155.937 17.7246 156.523 17.8271 156.874 17.9736V14.209C156.581 14.1211 156.157 14.0479 155.659 14.0479C153.813 14.0479 152.48 15.1318 151.923 17.124H151.835V14.2969H147.704V30ZM165.355 23.9795C165.487 27.9492 168.724 30.3662 173.807 30.3662C179.051 30.3662 182.376 27.7734 182.376 23.6719C182.376 20.4492 180.53 18.6328 176.297 17.7246L173.734 17.1826C171.302 16.626 170.277 15.8936 170.277 14.5898C170.277 13.0225 171.741 11.9824 173.924 11.9824C176.136 11.9824 177.703 13.0664 177.85 14.8535H181.995C181.922 11.0303 178.831 8.49609 173.909 8.49609C169.193 8.49609 165.823 11.0742 165.823 14.9707C165.823 18.0615 167.742 20.0391 171.639 20.874L174.393 21.4746C176.942 22.0459 177.952 22.8076 177.952 24.1846C177.952 25.7373 176.341 26.8652 173.983 26.8652C171.639 26.8652 169.822 25.7227 169.617 23.9795H165.355ZM191.209 14.0479C187.239 14.0479 184.763 17.124 184.763 22.1191C184.763 27.1436 187.21 30.249 191.135 30.249C193.421 30.249 195.252 29.0479 195.984 27.3193H196.072V35.127H200.349V14.2969H196.13V17.0361H196.043C195.237 15.249 193.494 14.0479 191.209 14.0479ZM192.586 26.8066C190.447 26.8066 189.143 25.0342 189.143 22.1484C189.143 19.2627 190.447 17.4756 192.586 17.4756C194.695 17.4756 196.087 19.292 196.087 22.1484C196.087 25.0195 194.71 26.8066 192.586 26.8066ZM218.249 14.2969H213.972V23.291C213.972 25.3711 212.785 26.7334 210.881 26.7334C208.991 26.7334 207.951 25.6201 207.951 23.5254V14.2969H203.674V24.4189C203.674 28.0811 205.93 30.293 209.328 30.293C211.701 30.293 213.254 29.1504 214.03 27.1729H214.118V30H218.249V14.2969ZM227.697 27.1582C226.246 27.1582 225.28 26.4258 225.28 25.2539C225.28 24.1406 226.188 23.4229 227.785 23.3057L231.095 23.1006V24.2432C231.095 25.9424 229.557 27.1582 227.697 27.1582ZM226.29 30.249C228.253 30.249 230.202 29.2676 231.08 27.5977H231.168V30H235.299V19.2041C235.299 16.04 232.677 13.96 228.649 13.96C224.489 13.96 221.896 16.0547 221.735 19.1016H225.646C225.851 17.9443 226.862 17.1533 228.458 17.1533C230.07 17.1533 231.095 18.0029 231.095 19.4678V20.5078L227.14 20.7422C223.229 20.9766 221.032 22.6318 221.032 25.4883C221.032 28.3154 223.302 30.249 226.29 30.249ZM238.668 30H242.945V21.2256C242.945 19.0137 244.176 17.7246 246.285 17.7246C246.9 17.7246 247.486 17.8271 247.838 17.9736V14.209C247.545 14.1211 247.12 14.0479 246.622 14.0479C244.776 14.0479 243.443 15.1318 242.887 17.124H242.799V14.2969H238.668V30ZM256.714 17.124C258.618 17.124 259.922 18.501 260.01 20.5078H253.345C253.491 18.5449 254.839 17.124 256.714 17.124ZM260.069 25.1953C259.673 26.3965 258.472 27.1729 256.904 27.1729C254.722 27.1729 253.301 25.6348 253.301 23.3936V23.1299H264.126V21.8262C264.126 17.0508 261.24 13.96 256.67 13.96C252.027 13.96 249.097 17.2119 249.097 22.2217C249.097 27.2461 251.997 30.3369 256.831 30.3369C260.713 30.3369 263.526 28.2715 263.994 25.1953H260.069Z" fill="#202424"/>
<path d="M7 7H37V27C37 32.5228 32.5228 37 27 37H7V7Z" fill="#F7AED4"/>
<circle cx="12.5" cy="12.5" r="12.5" fill="#29A5A8"/>
</svg>
